<?xml version="1.0" encoding="UTF-8"?>
<svg id="Calque_1" xmlns="http://www.w3.org/2000/svg" version="1.1" height="400px" viewBox="0 0 397.89 95.85">
  <!-- Generator: Adobe Illustrator 29.8.1, SVG Export Plug-In . SVG Version: 2.1.1 Build 2)  -->
  <defs>
    <style>
      .st0 {
        fill: #ff861d;
      }

      .st1 {
        fill: #ffb210;
      }

      .st2 {
        fill: #1057c8;
      }

      .st3 {
        fill: #d6430a;
      }
    </style>
  </defs>
  <path class="st2" d="M26.25,61.73c-12.02,0-20.11-8.16-20.11-21.37s8.01-21.37,20.33-21.37c8.83,0,15.06,3.78,17.36,11.28l-5.64,2.52c-1.48-5.94-4.97-8.69-11.87-8.69-8.46,0-14.25,6.01-14.25,16.25s5.93,16.25,13.95,16.25,11.73-2.82,12.84-8.61l5.71,1.93c-2,7.79-9.13,11.8-18.33,11.8"/>
  <path class="st2" d="M89.96,40.36c0,13.21-7.87,21.37-20.48,21.37s-20.48-8.16-20.48-21.37,7.86-21.37,20.48-21.37,20.48,8.16,20.48,21.37M54.94,40.36c0,10.24,5.64,16.25,14.54,16.25s14.54-6.01,14.54-16.25-5.64-16.25-14.54-16.25-14.54,6.01-14.54,16.25"/>
  <path class="st2" d="M134.3,40.29c0,13.43-8.01,20.85-21.81,20.85h-14.84V19.58h14.84c13.8,0,21.81,7.42,21.81,20.7M128.36,40.29c0-9.94-5.57-15.58-15.44-15.58h-9.35v31.32h9.35c9.87,0,15.44-5.71,15.44-15.73"/>
  <polygon class="st2" points="174.11 56.02 174.11 61.14 141.98 61.14 141.98 19.58 173.14 19.58 173.14 24.7 147.91 24.7 147.91 37.54 167.65 37.54 167.65 42.66 147.91 42.66 147.91 56.02 174.11 56.02"/>
  <path class="st2" d="M213.81,22.13c4.16-1.92,9.75-3.11,14.3-3.11,12.55,0,17.74,5.19,17.74,17.34v5.27c0,4.16.08,7.28.16,10.31.08,3.12.24,5.99.48,9.19h-9.43c-.4-2.16-.4-4.88-.48-6.15h-.16c-2.48,4.56-7.83,7.11-12.71,7.11-7.28,0-14.39-4.4-14.39-12.23,0-6.15,2.96-9.75,7.03-11.75,4.08-2,9.35-2.4,13.83-2.4h5.91c0-6.63-2.96-8.87-9.27-8.87-4.56,0-9.11,1.76-12.71,4.48l-.32-9.19ZM226.36,54.26c3.27,0,5.83-1.44,7.51-3.68,1.76-2.32,2.24-5.27,2.24-8.47h-4.63c-4.8,0-11.91.8-11.91,7.11,0,3.52,2.96,5.04,6.79,5.04"/>
  <path class="st2" d="M280.98,28.61c-3.28-1.12-5.67-1.76-9.59-1.76-2.88,0-6.31,1.04-6.31,4.56,0,6.56,18.62,2.4,18.62,17.27,0,9.59-8.55,13.43-17.27,13.43-4.08,0-8.23-.72-12.15-1.76l.64-8.79c3.36,1.68,6.87,2.72,10.55,2.72,2.72,0,7.03-1.04,7.03-5.04,0-8.07-18.62-2.56-18.62-17.42,0-8.87,7.75-12.79,16.14-12.79,5.03,0,8.31.8,11.67,1.52l-.72,8.07Z"/>
  <path class="st2" d="M295.25,27.81h-7.91v-7.83h7.91v-8.23l10.71-3.44v11.67h9.51v7.83h-9.51v19.18c0,3.52.96,6.79,5.04,6.79,1.92,0,3.76-.4,4.88-1.12l.32,8.47c-2.24.64-4.72.96-7.91.96-8.39,0-13.03-5.2-13.03-13.35v-20.94Z"/>
  <path class="st2" d="M355.22,58.82c-3.92,2.16-8.39,3.28-14.15,3.28-13.59,0-21.5-7.83-21.5-21.34,0-11.91,6.31-21.74,19.1-21.74,15.27,0,19.58,10.47,19.58,24.85h-28.45c.48,6.63,5.11,10.39,11.75,10.39,5.2,0,9.67-1.92,13.67-4.15v8.71ZM348.03,36.52c-.32-5.19-2.72-9.67-8.71-9.67s-9.03,4.16-9.51,9.67h18.22Z"/>
  <path class="st2" d="M366.57,19.98h9.51v9.35h.16c.48-3.84,4.87-10.31,11.27-10.31,1.04,0,2.16,0,3.27.32v10.79c-.96-.56-2.88-.88-4.79-.88-8.71,0-8.71,10.87-8.71,16.78v15.11h-10.71V19.98Z"/>
  <path class="st0" d="M229.73,80.9c0,3.67-2.97,6.64-6.64,6.64s-6.64-2.97-6.64-6.64,2.97-6.64,6.64-6.64,6.64,2.97,6.64,6.64"/>
  <path class="st0" d="M203.17,80.9c0,3.67-2.97,6.64-6.64,6.64s-6.64-2.97-6.64-6.64,2.97-6.64,6.64-6.64,6.64,2.97,6.64,6.64"/>
  <path class="st1" d="M296.14,80.9c0,3.67-2.97,6.64-6.64,6.64s-6.64-2.97-6.64-6.64,2.97-6.64,6.64-6.64,6.64,2.97,6.64,6.64"/>
  <path class="st1" d="M378.47,80.9c0,3.67-2.97,6.64-6.64,6.64s-6.64-2.97-6.64-6.64,2.97-6.64,6.64-6.64,6.64,2.97,6.64,6.64"/>
  <path class="st1" d="M269.57,80.9c0,3.67-2.97,6.64-6.64,6.64s-6.64-2.97-6.64-6.64,2.97-6.64,6.64-6.64,6.64,2.97,6.64,6.64"/>
  <path class="st3" d="M107.55,80.9c0,3.67-2.97,6.64-6.64,6.64s-6.64-2.97-6.64-6.64,2.97-6.64,6.64-6.64,6.64,2.97,6.64,6.64"/>
  <rect class="st0" x="134.12" y="75.59" width="42.5" height="10.62"/>
  <rect class="st1" x="309.42" y="75.59" width="42.5" height="10.62"/>
</svg>