<?xml version="1.0" encoding="UTF-8"?>
<svg id="Calque_1" xmlns="http://www.w3.org/2000/svg" version="1.1" viewBox="0 0 118.14 118.14">
  <!-- Generator: Adobe Illustrator 29.8.1, SVG Export Plug-In . SVG Version: 2.1.1 Build 2)  -->
  <defs>
    <style>
      .st0 {
        fill: #fff;
      }

      .st1 {
        fill: #ff861d;
      }

      .st2 {
        fill: #ffb210;
      }

      .st3 {
        fill: #1057c8;
      }

      .st4 {
        fill: #d6430a;
      }
    </style>
  </defs>
  <path class="st0" d="M99.96,118.14H17.86c-9.86,0-17.86-8-17.86-17.86V18.18C0,8.32,8,.32,17.86.32h82.1c9.86,0,17.86,7.99,17.86,17.86v82.1c0,9.86-8,17.86-17.86,17.86"/>
  <path class="st4" d="M26.12,64.36c0,1.89-1.53,3.42-3.42,3.42s-3.41-1.53-3.41-3.42,1.53-3.41,3.41-3.41,3.42,1.53,3.42,3.41"/>
  <path class="st1" d="M69.14,80.4c0,1.89-1.53,3.41-3.41,3.41s-3.41-1.53-3.41-3.41,1.53-3.42,3.41-3.42,3.41,1.53,3.41,3.42"/>
  <path class="st1" d="M55.49,80.4c0,1.89-1.53,3.41-3.41,3.41s-3.41-1.53-3.41-3.41,1.53-3.42,3.41-3.42,3.41,1.53,3.41,3.42"/>
  <rect class="st1" x="19.98" y="77.67" width="21.85" height="5.46"/>
  <path class="st2" d="M39.78,96.45c0,1.89-1.53,3.42-3.41,3.42s-3.42-1.53-3.42-3.42,1.53-3.41,3.42-3.41,3.41,1.53,3.41,3.41"/>
  <path class="st2" d="M82.12,96.45c0,1.89-1.53,3.42-3.41,3.42s-3.41-1.53-3.41-3.42,1.53-3.41,3.41-3.41,3.41,1.53,3.41,3.41"/>
  <path class="st2" d="M26.12,96.45c0,1.89-1.53,3.42-3.42,3.42s-3.41-1.53-3.41-3.42,1.53-3.41,3.41-3.41,3.42,1.53,3.42,3.41"/>
  <rect class="st2" x="46.61" y="93.71" width="21.85" height="5.46"/>
  <g>
    <path class="st3" d="M58.86,68.16c-9.31,0-15.58-6.32-15.58-16.55s6.21-16.55,15.75-16.55c6.84,0,11.67,2.93,13.45,8.74l-4.37,1.96c-1.15-4.6-3.85-6.73-9.2-6.73-6.55,0-11.03,4.66-11.03,12.59s4.6,12.59,10.8,12.59,9.08-2.19,9.95-6.67l4.43,1.49c-1.55,6.03-7.07,9.14-14.2,9.14"/>
    <path class="st3" d="M81.57,37.49c3.22-1.49,7.55-2.41,11.08-2.41,9.72,0,13.74,4.02,13.74,13.43v4.09c0,3.22.06,5.63.13,7.99.06,2.41.18,4.64.37,7.12h-7.3c-.31-1.67-.31-3.78-.37-4.77h-.12c-1.92,3.53-6.07,5.51-9.84,5.51-5.64,0-11.14-3.4-11.14-9.47,0-4.77,2.29-7.55,5.45-9.1,3.16-1.55,7.24-1.86,10.71-1.86h4.58c0-5.14-2.29-6.87-7.18-6.87-3.53,0-7.06,1.36-9.84,3.47l-.25-7.12ZM91.29,62.37c2.54,0,4.52-1.11,5.82-2.85,1.36-1.79,1.73-4.09,1.73-6.56h-3.59c-3.72,0-9.22.62-9.22,5.51,0,2.73,2.29,3.9,5.26,3.9"/>
  </g>
</svg>